<svg width="100" height="100" viewBox="0 0 100 100" fill="none" xmlns="http://www.w3.org/2000/svg">
<mask id="mask0_34_47" style="mask-type:alpha" maskUnits="userSpaceOnUse" x="0" y="0" width="100" height="100">
<rect width="100" height="100" rx="8" fill="#12192C"/>
</mask>
<g mask="url(#mask0_34_47)">
<rect width="100" height="100" rx="8" fill="#12192C"/>
<path d="M49 100L55.8083 51.5567L55.8068 51.5565L56.1891 48.8362L49.024 47.8292L55.746 0H92.5082C96.9265 0 100.508 3.58172 100.508 8V92C100.508 96.4183 96.9265 100 92.5082 100H49Z" fill="#E52020"/>
<path d="M51.1984 0H8C3.58172 0 0 3.58172 0 8V92C0 96.4183 3.58172 100 8 100H44.4525L51.1646 52.2408L44 51.2339L44.3823 48.5137L44.3803 48.5134L51.1984 0Z" fill="#1851E5"/>
</g>
<mask id="mask1_34_47" style="mask-type:alpha" maskUnits="userSpaceOnUse" x="0" y="0" width="100" height="100">
<rect width="100" height="100" rx="8" fill="#12192C"/>
</mask>
<g mask="url(#mask1_34_47)">
<path d="M51.1984 0H8C3.58172 0 0 3.58172 0 8V92C0 96.4183 3.58172 100 8 100H44.4525L51.1646 52.2408L44 51.2339L44.3823 48.5137L44.3803 48.5134L51.1984 0Z" fill="url(#paint0_linear_34_47)"/>
<path d="M32.9623 55.0163C31.0998 58.3171 27.5521 60.5473 23.5166 60.5473C17.5299 60.5473 12.6519 55.6407 12.6519 49.619C12.6519 43.5973 17.5299 38.6908 23.5166 38.6908C27.5521 38.6908 31.0998 40.921 32.9623 44.2664L38.7273 40.921C35.7118 35.613 30.0355 32 23.5166 32C13.8492 32 6 39.8951 6 49.619C6 59.343 13.8492 67.2381 23.5166 67.2381C29.9911 67.2381 35.6674 63.6697 38.6829 58.4063L32.9623 55.0163ZM38.1508 50.6004L38.5499 48.6823H36.6874V46.5859H38.949L39.4812 43.8204H41.6541L41.122 46.5413H42.8071L43.3392 43.8204H45.4678L44.9357 46.5413H46V48.6377H44.5366L44.1375 50.5558H46V52.6522H43.7384L43.2062 55.3285H41.0333L41.5654 52.6522H39.8803L39.3481 55.3285H37.2195L37.7517 52.6522H36.6874V50.5558H38.1508V50.6004ZM40.2794 50.6004H41.9645L42.3636 48.6823H40.6785L40.2794 50.6004Z" fill="#12192C"/>
</g>
<mask id="mask2_34_47" style="mask-type:alpha" maskUnits="userSpaceOnUse" x="0" y="0" width="100" height="100">
<rect width="100" height="100" rx="8" fill="#12192C"/>
</mask>
<g mask="url(#mask2_34_47)">
<path d="M49 100L55.7411 51.5567L55.7396 51.5565L56.1181 48.8362L49.0238 47.8292L55.6794 0H92.0789C96.4536 0 100 3.58172 100 8V92C100 96.4183 96.4536 100 92.0789 100H49Z" fill="url(#paint1_linear_34_47)"/>
<path d="M92.8354 54.8128C92.3902 52.0248 90.5819 49.6831 85.2255 47.4995C83.3647 46.6399 81.2903 46.0243 80.6722 44.6067C80.4527 43.7817 80.4236 43.3169 80.5624 42.8175C80.9611 41.1968 82.8854 40.6916 84.4106 41.1563C85.393 41.4873 86.3229 42.2483 86.8837 43.4624C89.5068 41.7548 89.5015 41.766 91.3331 40.5925C90.6625 39.5473 90.3046 39.065 89.8656 38.6179C88.288 36.8463 86.1383 35.9339 82.7004 36.0037L80.9096 36.2366C79.1936 36.6725 77.5582 37.5781 76.5991 38.7921C73.7216 42.0746 74.5422 47.8193 78.0437 50.1835C81.4933 52.7864 86.5608 53.3785 87.2081 55.8125C87.8379 58.7923 85.0298 59.7569 82.2387 59.4142C80.1817 58.9841 79.0377 57.9331 77.8009 56.0219C75.5246 57.3463 75.5246 57.3463 73.1841 58.6995C73.7391 59.9195 74.3223 60.4716 75.2526 61.5285C79.6559 66.0186 90.6746 65.798 92.6509 59.0017C92.731 58.7684 93.2632 57.2121 92.8354 54.8128ZM70.0691 36.3635H64.3834L64.3601 51.1413C64.3601 54.2841 64.5218 57.1652 64.0134 58.0483C63.1816 59.7852 61.0261 59.5699 60.0438 59.2331C59.044 58.7391 58.5356 58.0366 57.9466 57.0437C57.7849 56.7586 57.6635 56.5379 57.6227 56.5209L53 59.3669C53.7687 60.9529 54.901 62.3295 56.3515 63.2239C58.5181 64.5312 61.4301 64.9319 64.4757 64.229C66.4578 63.6486 68.168 62.4462 69.0634 60.6161C70.358 58.2167 70.0802 55.3126 70.0686 52.1005C70.0977 46.86 70.0691 41.6206 70.0691 36.3635Z" fill="#12192C"/>
</g>
<defs>
<linearGradient id="paint0_linear_34_47" x1="51" y1="100" x2="-4.69083e-06" y2="2.39232e-06" gradientUnits="userSpaceOnUse">
<stop stop-opacity="0.1"/>
<stop offset="1" stop-color="white" stop-opacity="0.2"/>
</linearGradient>
<linearGradient id="paint1_linear_34_47" x1="49" y1="0" x2="48.8531" y2="99.9241" gradientUnits="userSpaceOnUse">
<stop stop-color="white" stop-opacity="0.2"/>
<stop offset="1" stop-opacity="0.1"/>
</linearGradient>
</defs>
</svg>
