<svg width="106" height="105" viewBox="0 0 106 105" fill="none" xmlns="http://www.w3.org/2000/svg">
<path d="M103 3H3V103L103 3Z" fill="url(#paint0_linear_29_200)"/>
<g filter="url(#filter0_i_29_200)">
<path d="M49.6523 46.6992C47.8477 49.8789 44.4102 52.0273 40.5 52.0273C34.6992 52.0273 29.9727 47.3008 29.9727 41.5C29.9727 35.6992 34.6992 30.9727 40.5 30.9727C44.4102 30.9727 47.8477 33.1211 49.6523 36.3438L55.2383 33.1211C52.3164 28.0078 46.8164 24.5273 40.5 24.5273C31.1328 24.5273 23.5273 32.1328 23.5273 41.5C23.5273 50.8672 31.1328 58.4727 40.5 58.4727C46.7734 58.4727 52.2734 55.0352 55.1953 49.9648L49.6523 46.6992ZM54.6797 42.4453L55.0664 40.5977H53.2617V38.5781H55.4531L55.9687 35.9141H58.0742L57.5586 38.5352H59.1914L59.707 35.9141H61.7695L61.2539 38.5352H62.2852V40.5547H60.8672L60.4805 42.4023H62.2852V44.4219H60.0937L59.5781 47H57.4727L57.9883 44.4219H56.3555L55.8398 47H53.7773L54.293 44.4219H53.2617V42.4023H54.6797V42.4453ZM56.7422 42.4453H58.375L58.7617 40.5977H57.1289L56.7422 42.4453Z" fill="#002177"/>
</g>
<path d="M3 103L103 103L103 3L3 103Z" fill="url(#paint1_linear_29_200)"/>
<g filter="url(#filter1_i_29_200)">
<path d="M86.2214 69.0286C85.7127 65.8608 83.6471 63.2 77.5283 60.7188C75.4028 59.742 73.0331 59.0426 72.327 57.4318C72.0763 56.4944 72.043 55.9663 72.2017 55.3988C72.6571 53.5573 74.8553 52.9832 76.5976 53.5112C77.7197 53.8873 78.7819 54.7521 79.4226 56.1316C82.419 54.1913 82.4129 54.204 84.5052 52.8706C83.7392 51.683 83.3304 51.135 82.8289 50.6269C81.0267 48.6139 78.5711 47.5772 74.644 47.6565L72.5983 47.9211C70.638 48.4164 68.7698 49.4454 67.6743 50.8249C64.3872 54.5546 65.3246 61.0822 69.3245 63.7685C73.265 66.7261 79.0537 67.3989 79.7931 70.1646C80.5125 73.5504 77.3048 74.6465 74.1164 74.2571C71.7668 73.7684 70.4599 72.5742 69.0472 70.4026C66.4468 71.9074 66.4468 71.9074 63.7732 73.445C64.4072 74.8312 65.0734 75.4586 66.1362 76.6595C71.1661 81.7615 83.753 81.5108 86.0106 73.7884C86.1021 73.5233 86.7101 71.7549 86.2214 69.0286ZM60.2149 48.0653H53.72L53.6934 64.8568C53.6934 68.4279 53.8781 71.7017 53.2974 72.7051C52.3472 74.6787 49.8849 74.4341 48.7628 74.0513C47.6207 73.49 47.0399 72.6918 46.3671 71.5635C46.1824 71.2396 46.0437 70.9889 45.9971 70.9695L40.7165 74.2033C41.5946 76.0055 42.8881 77.5697 44.5449 78.5859C47.02 80.0713 50.3464 80.5267 53.8254 79.728C56.0897 79.0685 58.0433 77.7023 59.0661 75.6227C60.5449 72.8965 60.2276 69.5966 60.2143 65.9468C60.2476 59.9922 60.2149 54.0388 60.2149 48.0653Z" fill="#6A0A0A"/>
</g>
<path d="M3 7V98.5C3 100.709 4.79086 102.5 7 102.5H99C101.209 102.5 103 100.709 103 98.5V7C103 4.79086 101.209 3 99 3H7C4.79086 3 3 4.79086 3 7Z" stroke="#232323" stroke-width="5" stroke-linecap="round" stroke-linejoin="round"/>
<path d="M5 100L101 5" stroke="#232323" stroke-width="5" stroke-linecap="round" stroke-linejoin="round"/>
<defs>
<filter id="filter0_i_29_200" x="23.5273" y="24.5273" width="38.7578" height="35.9453" filterUnits="userSpaceOnUse" color-interpolation-filters="sRGB">
<feFlood flood-opacity="0" result="BackgroundImageFix"/>
<feBlend mode="normal" in="SourceGraphic" in2="BackgroundImageFix" result="shape"/>
<feColorMatrix in="SourceAlpha" type="matrix" values="0 0 0 0 0 0 0 0 0 0 0 0 0 0 0 0 0 0 127 0" result="hardAlpha"/>
<feOffset dy="2"/>
<feGaussianBlur stdDeviation="2"/>
<feComposite in2="hardAlpha" operator="arithmetic" k2="-1" k3="1"/>
<feColorMatrix type="matrix" values="0 0 0 0 0 0 0 0 0 0 0 0 0 0 0 0 0 0 0.25 0"/>
<feBlend mode="normal" in2="shape" result="effect1_innerShadow_29_200"/>
</filter>
<filter id="filter1_i_29_200" x="40.7165" y="47.6523" width="45.6929" height="36.4648" filterUnits="userSpaceOnUse" color-interpolation-filters="sRGB">
<feFlood flood-opacity="0" result="BackgroundImageFix"/>
<feBlend mode="normal" in="SourceGraphic" in2="BackgroundImageFix" result="shape"/>
<feColorMatrix in="SourceAlpha" type="matrix" values="0 0 0 0 0 0 0 0 0 0 0 0 0 0 0 0 0 0 127 0" result="hardAlpha"/>
<feOffset dy="4"/>
<feGaussianBlur stdDeviation="2"/>
<feComposite in2="hardAlpha" operator="arithmetic" k2="-1" k3="1"/>
<feColorMatrix type="matrix" values="0 0 0 0 0 0 0 0 0 0 0 0 0 0 0 0 0 0 0.25 0"/>
<feBlend mode="normal" in2="shape" result="effect1_innerShadow_29_200"/>
</filter>
<linearGradient id="paint0_linear_29_200" x1="53" y1="49.6292" x2="32.5884" y2="3.79926" gradientUnits="userSpaceOnUse">
<stop stop-color="#1851E6"/>
<stop offset="1" stop-color="#2D67FB"/>
</linearGradient>
<linearGradient id="paint1_linear_29_200" x1="55.6596" y1="52.4382" x2="87.8968" y2="103.127" gradientUnits="userSpaceOnUse">
<stop stop-color="#E62020"/>
<stop offset="1" stop-color="#841717"/>
</linearGradient>
</defs>
</svg>
